<?xml version="1.0" encoding="UTF-8" standalone="no"?>
<!-- Created with Inkscape (http://www.inkscape.org/) -->

<svg
   xmlns:dc="http://purl.org/dc/elements/1.1/"
   xmlns:cc="http://creativecommons.org/ns#"
   xmlns:rdf="http://www.w3.org/1999/02/22-rdf-syntax-ns#"
   xmlns:svg="http://www.w3.org/2000/svg"
   xmlns="http://www.w3.org/2000/svg"
   xmlns:sodipodi="http://sodipodi.sourceforge.net/DTD/sodipodi-0.dtd"
   xmlns:inkscape="http://www.inkscape.org/namespaces/inkscape"
   width="1052.3622"
   height="744.09448"
   id="svg2"
   version="1.1"
   inkscape:version="0.48.4 r9939"
   sodipodi:docname="afsda1f5.svg"
   inkscape:export-filename="C:\Users\joebo_000\Desktop\Dropbox\Webery\apetower\afsda1f5.png"
   inkscape:export-xdpi="90"
   inkscape:export-ydpi="90">
  <defs
     id="defs4">
    <filter
       inkscape:collect="always"
       id="filter3786">
      <feGaussianBlur
         inkscape:collect="always"
         stdDeviation="2.6342023"
         id="feGaussianBlur3788" />
    </filter>
    <filter
       inkscape:collect="always"
       id="filter3802">
      <feGaussianBlur
         inkscape:collect="always"
         stdDeviation="1.6169022"
         id="feGaussianBlur3804" />
    </filter>
  </defs>
  <sodipodi:namedview
     id="base"
     pagecolor="#69c9c9"
     bordercolor="#666666"
     borderopacity="1.0"
     inkscape:pageopacity="0"
     inkscape:pageshadow="2"
     inkscape:zoom="0.98994949"
     inkscape:cx="516.76424"
     inkscape:cy="345.62308"
     inkscape:document-units="px"
     inkscape:current-layer="layer1"
     showgrid="false"
     inkscape:snap-bbox="true"
     inkscape:bbox-nodes="true"
     inkscape:object-nodes="true"
     inkscape:window-width="1680"
     inkscape:window-height="987"
     inkscape:window-x="1272"
     inkscape:window-y="-8"
     inkscape:window-maximized="1" />
  <metadata
     id="metadata7">
    <rdf:RDF>
      <cc:Work
         rdf:about="">
        <dc:format>image/svg+xml</dc:format>
        <dc:type
           rdf:resource="http://purl.org/dc/dcmitype/StillImage" />
        <dc:title></dc:title>
      </cc:Work>
    </rdf:RDF>
  </metadata>
  <g
     inkscape:label="Layer 1"
     inkscape:groupmode="layer"
     id="layer1"
     transform="translate(0,-308.2677)">
    <g
       id="g3812"
       transform="translate(413.15239,-279.81226)"
       inkscape:export-xdpi="90"
       inkscape:export-ydpi="90">
      <g
         transform="matrix(0.44850714,0,0,0.44850714,237.1081,393.66278)"
         id="text3794"
         style="font-size:442.70263672px;font-style:normal;font-variant:normal;font-weight:normal;font-stretch:normal;line-height:125%;letter-spacing:0px;word-spacing:0px;fill:#000000;fill-opacity:1;stroke:none;font-family:Harlow Solid Italic;-inkscape-font-specification:Harlow Solid Italic">
        <path
           inkscape:connector-curvature="0"
           id="path3810"
           d="m 794.36518,642.75912 c 3.45827,1.15305 5.76401,1.15305 6.91723,0 9.22261,1.15305 15.5634,4.03523 19.02238,8.64653 4.61111,5.76453 6.91685,11.52888 6.91723,17.29307 1.15249,8.07025 -1.15325,14.41104 -6.91723,19.02238 -3.45898,4.61162 -9.79977,6.91736 -19.02238,6.91723 -1.15322,1.3e-4 -3.45896,1.3e-4 -6.91723,0 L 702.7119,680.80387 c -2.5e-4,2.30589 -1.15312,4.0352 -3.45861,5.18792 l 74.36021,53.60853 c 9.22263,8.07018 13.83411,16.14027 13.83446,24.2103 1.15252,8.07015 -1.15322,14.41094 -6.91723,19.02238 -4.61182,5.76439 -10.37617,8.07013 -17.29307,6.91723 -10.37616,1.1529 -19.02268,-3.45858 -25.93961,-13.83446 l -53.60852,-74.36021 c -1.15311,2.30587 -2.88242,3.45874 -5.18793,3.45861 l 13.83446,91.65328 c -2.5e-4,2.30578 -2.5e-4,4.03508 0,5.18793 -2.5e-4,6.91724 -2.30599,13.25803 -6.91723,19.02237 -4.61172,5.76436 -10.95251,8.64654 -19.02238,8.64654 -5.76457,1.15287 -11.52892,-1.15287 -17.29307,-6.91723 -5.76455,-4.61147 -8.64673,-11.5287 -8.64653,-20.75168 1.15267,-1.15285 1.15267,-2.88215 0,-5.18793 l 13.83445,-93.38258 c -2.30595,1.2e-4 -4.03525,-0.57631 -5.18792,-1.72931 l -55.33783,76.08951 c -5.7645,8.07015 -13.25815,12.10519 -22.48099,12.10516 -5.76448,1.1529 -11.52883,-1.15284 -17.29307,-6.91723 -4.61159,-4.61144 -7.49377,-10.37579 -8.64654,-17.29308 -1e-4,-10.37577 4.61138,-19.02229 13.83446,-25.9396 l 74.36021,-53.60853 c -1.9e-4,-1.15272 -0.57663,-2.88203 -1.72931,-5.18792 l -93.38259,13.83446 c -2.30583,1.3e-4 -4.61157,1.3e-4 -6.91723,0 -8.07017,1.3e-4 -14.41096,-2.30561 -19.02237,-6.91723 -4.61155,-4.61134 -6.91729,-10.95213 -6.91723,-19.02238 -6e-5,-6.91706 2.30568,-13.25785 6.91723,-19.02238 4.61141,-4.6113 10.9522,-6.91704 19.02237,-6.91722 2.30566,1.15305 4.6114,1.15305 6.91723,0 l 93.38259,13.83445 c 1.15268,-2.30557 1.72912,-4.03487 1.72931,-5.18792 L 557.4501,596.06782 c -9.22307,-6.91699 -13.25812,-14.98708 -12.10515,-24.2103 1.15277,-6.91696 4.03495,-12.68132 8.64654,-17.29307 5.76424,-5.76408 12.10503,-8.06982 19.02238,-6.91723 9.22283,1.15315 16.14005,5.1882 20.75168,12.10515 l 55.33783,76.08952 c 2.30554,1.9e-4 4.03484,-1.15268 5.18792,-3.45862 l -13.83445,-91.65328 c -2e-4,-1.15258 -2e-4,-4.03476 0,-8.64653 1.15267,-8.0698 3.45841,-13.83415 6.91722,-17.29308 5.76415,-4.61116 12.10494,-6.9169 19.02238,-6.91722 5.76413,3.2e-4 11.52849,2.30606 17.29308,6.91722 5.76411,4.6118 8.64628,10.95259 8.64653,19.02238 -2.5e-4,2.30604 -2.5e-4,4.61178 0,6.91723 l -13.83446,91.65328 c 2.30551,1.15307 4.03482,2.30594 5.18793,3.45862 l 55.33783,-76.08952 c 6.91692,-9.22269 14.98702,-13.25774 24.2103,-12.10515 5.76403,1.15315 10.95195,3.45889 15.56376,6.91723 5.76402,4.61175 8.64619,10.37611 8.64654,17.29307 1.15252,10.37609 -2.88252,18.44618 -12.10515,24.2103 l -76.08952,55.33783 c 2.30549,2.30592 3.45836,4.03522 3.45861,5.18792 l 91.65328,-13.83445 z" />
      </g>
      <g
         transform="matrix(0.44850714,0,0,0.44850714,237.1081,393.66278)"
         id="text3798"
         style="font-size:442.70263672px;font-style:normal;font-variant:normal;font-weight:normal;font-stretch:normal;line-height:125%;letter-spacing:0px;word-spacing:0px;opacity:0.87980772;fill:#aaffee;fill-opacity:1;stroke:none;filter:url(#filter3802);font-family:Harlow Solid Italic;-inkscape-font-specification:Harlow Solid Italic">
        <path
           sodipodi:nodetypes="ccccccccccccccccccccccccccccccccccccccccccccccccccccccccccccccccc"
           inkscape:connector-curvature="0"
           id="path3807"
           d="m 795.88038,643.76925 c 3.45826,1.15305 5.764,1.15305 6.91723,0 9.22261,1.15305 15.56339,4.03523 19.02238,8.64653 4.61111,5.76453 6.91685,11.52888 6.91723,17.29307 1.15249,8.07026 -1.15325,14.41104 -6.91723,19.02238 -3.45899,4.61162 -9.79977,6.91737 -19.02238,6.91723 -1.15323,1.4e-4 -3.45897,1.4e-4 -6.91723,0 L 704.2271,681.814 c -2.6e-4,2.30589 -1.15313,4.0352 -3.45861,5.18793 l 74.36021,53.60852 c 9.22263,8.07018 13.83411,16.14027 13.83445,24.2103 1.15253,8.07016 -1.15321,14.41094 -6.91722,19.02238 -4.61182,5.76439 -10.37617,8.07014 -17.29308,6.91723 -10.37615,1.15291 -19.02267,-3.45858 -25.9396,-13.83446 l -53.60853,-74.36021 c -1.15311,2.30587 -2.88241,3.45874 -5.18792,3.45862 l 13.83446,91.65328 c -2.5e-4,2.30577 -2.5e-4,4.03507 0,5.18792 -2.5e-4,6.91724 -2.30599,13.25803 -6.91723,19.02238 -4.61172,5.76435 -10.95251,8.64653 -19.02238,8.64653 -5.76457,1.15287 -11.52892,-1.15287 -17.29307,-6.91723 -5.76456,-4.61147 -8.64673,-11.52869 -8.64654,-20.75168 1.15268,-1.15285 1.15268,-2.88215 0,-5.18792 L 655.8065,704.295 c -2.30595,1.2e-4 -4.03525,-0.57631 -5.18792,-1.72931 l -55.33783,76.08952 c -5.7645,8.07014 -13.25816,12.10518 -22.48099,12.10515 -5.76448,1.15291 -11.52883,-1.15284 -17.29307,-6.91723 -4.61159,-4.61144 -7.49377,-10.37579 -8.64654,-17.29307 -10e-5,-10.37577 4.61138,-19.0223 13.83446,-25.93961 l 74.36021,-53.60852 c -1.9e-4,-1.15273 -0.57663,-2.88204 -1.72931,-5.18793 l -93.38259,13.83446 c -2.30583,1.4e-4 -4.61157,1.4e-4 -6.91723,0 -8.07018,1.4e-4 -14.41096,-2.30561 -19.02238,-6.91723 -4.61155,-4.61134 -6.91729,-10.95212 -6.91723,-19.02238 -6e-5,-6.91706 2.30568,-13.25784 6.91723,-19.02237 4.61142,-4.61131 16.35423,-7.92718 24.42441,-7.92736 3.18954,0.0166 5.40203,-1.01013 6.91723,0 l 87.98056,14.84458 c 1.15268,-2.30556 1.72912,-4.03487 1.72931,-5.18792 L 558.9653,597.07795 c -9.22308,-6.91699 -13.25812,-14.98708 -12.10515,-24.2103 1.15277,-6.91696 4.03495,-12.68131 8.64654,-17.29307 5.76424,-5.76408 12.10502,-8.06982 19.02237,-6.91723 9.22284,1.15315 16.14006,5.1882 20.75169,12.10515 l 55.33783,76.08952 c 2.30554,1.9e-4 4.03484,-1.15268 5.18792,-3.45862 l -13.83446,-91.65328 c -1.9e-4,-1.15258 -1.9e-4,-4.03476 0,-8.64653 1.15268,-8.0698 3.45842,-13.83415 6.91723,-17.29307 5.76415,-4.61117 12.10494,-6.91691 19.02238,-6.91723 5.76413,3.2e-4 11.52848,2.30606 17.29307,6.91723 5.76412,4.61179 8.64629,10.95258 8.64654,19.02238 -2.5e-4,2.30603 -2.5e-4,4.61177 0,6.91722 L 680.0168,633.3934 c 2.30551,1.15307 4.03481,2.30594 5.18792,3.45862 l 55.33783,-76.08952 c 6.91693,-9.22269 14.98702,-13.25774 24.2103,-12.10515 5.76404,1.15315 10.95195,3.45889 15.56377,6.91723 5.76402,4.61176 8.64619,10.37611 8.64653,17.29307 1.15253,10.37609 -2.88251,18.44618 -12.10515,24.2103 l -76.08951,55.33783 c 2.30548,2.30592 3.45835,4.03523 3.45861,5.18792 z" />
      </g>
    </g>
  </g>
</svg>
