<?xml version="1.0" encoding="UTF-8" standalone="no"?>
<!-- Created with Inkscape (http://www.inkscape.org/) -->

<svg
   xmlns:dc="http://purl.org/dc/elements/1.1/"
   xmlns:cc="http://creativecommons.org/ns#"
   xmlns:rdf="http://www.w3.org/1999/02/22-rdf-syntax-ns#"
   xmlns:svg="http://www.w3.org/2000/svg"
   xmlns="http://www.w3.org/2000/svg"
   xmlns:sodipodi="http://sodipodi.sourceforge.net/DTD/sodipodi-0.dtd"
   xmlns:inkscape="http://www.inkscape.org/namespaces/inkscape"
   width="1000"
   height="1000"
   id="svg2"
   version="1.1"
   inkscape:version="0.48.4 r9939"
   sodipodi:docname="New document 1">
  <defs
     id="defs4">
    <inkscape:path-effect
       effect="spiro"
       id="path-effect3782"
       is_visible="true" />
  </defs>
  <sodipodi:namedview
     id="base"
     pagecolor="#ffffff"
     bordercolor="#666666"
     borderopacity="1.0"
     inkscape:pageopacity="0.0"
     inkscape:pageshadow="2"
     inkscape:zoom="1.0541016"
     inkscape:cx="391.14136"
     inkscape:cy="565.2072"
     inkscape:document-units="px"
     inkscape:current-layer="layer1"
     showgrid="false"
     inkscape:showpageshadow="false"
     width="1000px"
     showguides="true"
     inkscape:guide-bbox="true"
     inkscape:window-width="1680"
     inkscape:window-height="991"
     inkscape:window-x="0"
     inkscape:window-y="27"
     inkscape:window-maximized="1">
    <sodipodi:guide
       orientation="-1,1.2246468e-16"
       position="300.52497,740.57938"
       id="guide3753" />
    <sodipodi:guide
       orientation="1,0"
       position="700.3305,796.92782"
       id="guide3755" />
    <sodipodi:guide
       orientation="0,1"
       position="426.63812,749.97079"
       id="guide3757" />
    <sodipodi:guide
       orientation="0,1"
       position="555.43454,248.20142"
       id="guide3759" />
    <sodipodi:guide
       orientation="1,0"
       position="151.60411,610.44134"
       id="guide3772" />
    <sodipodi:guide
       orientation="1,0"
       position="850.59299,670.81466"
       id="guide3774" />
    <sodipodi:guide
       orientation="0,1"
       position="481.64493,874.74232"
       id="guide3776" />
    <sodipodi:guide
       orientation="0,1"
       position="700.3305,124.77153"
       id="guide3778" />
  </sodipodi:namedview>
  <metadata
     id="metadata7">
    <rdf:RDF>
      <cc:Work
         rdf:about="">
        <dc:format>image/svg+xml</dc:format>
        <dc:type
           rdf:resource="http://purl.org/dc/dcmitype/StillImage" />
        <dc:title></dc:title>
      </cc:Work>
    </rdf:RDF>
  </metadata>
  <g
     inkscape:label="Layer 1"
     inkscape:groupmode="layer"
     id="layer1"
     transform="translate(0,-52.362207)">
    <path
       style="fill:none;stroke:#000000;stroke-width:1px;stroke-linecap:butt;stroke-linejoin:miter;stroke-opacity:1"
       d="m 850.59299,154.66661 c -75.8609,-5.44011 -152.53634,0.62332 -226.59929,17.91927 -69.06437,16.12863 -135.90119,42.04025 -197.35558,77.44333 -47.64,27.44479 -92.55664,61.09544 -126.11315,104.64709 -48.5022,62.94906 -70.62946,146.91628 -53.87438,224.59713 8.37754,38.84043 26.17897,75.70553 51.97061,105.93058 25.79164,30.22504 59.579,53.69217 97.15945,66.59457 56.91164,19.53933 121.21281,14.02915 175.75931,-11.37557 54.5465,-25.40471 99.33193,-69.83087 128.79054,-122.29906 17.18832,-30.61379 29.45061,-64.21032 33.90609,-99.03547 4.45547,-34.82516 0.93325,-70.90168 -12.15438,-103.48015 -13.08764,-32.57846 -35.96757,-61.48073 -65.81284,-79.97133 -29.84527,-18.4906 -66.6702,-26.10479 -101.04866,-18.97993 -20.6427,4.27816 -40.20319,13.75348 -56.27186,27.39977 -16.06867,13.6463 -28.60225,31.44456 -35.91293,51.21771 -7.31069,19.77315 -9.3678,41.47915 -5.7731,62.25176 3.5947,20.77262 12.84644,40.55491 26.58384,56.54576 11.19823,13.03516 25.37106,23.55711 41.24122,30.14903 15.87017,6.59192 33.42457,9.20788 50.48537,7.14764 17.0608,-2.06024 33.57894,-8.83563 46.93569,-19.64825 13.35676,-10.81261 23.47065,-25.66373 28.27662,-42.16277 5.34949,-18.36495 3.9387,-38.76478 -4.63879,-55.862 -8.57749,-17.09723 -24.40411,-30.58419 -42.87395,-35.55949 -11.44175,-3.08211 -23.77708,-2.92105 -35.05229,0.72349 -11.27521,3.64455 -21.432,10.79599 -28.44451,20.34784 -7.0125,9.55185 -10.80354,21.47787 -10.32121,33.31765 0.48233,11.83978 5.28792,23.50124 13.48419,32.05894 5.43581,5.67551 12.31959,9.97846 19.84694,12.23643 7.52735,2.25797 15.68381,2.44874 23.27134,0.40208 7.58753,-2.04666 14.57479,-6.34264 19.71563,-12.28664 5.14085,-5.944 8.3951,-13.52364 9.01885,-21.35756 0.45919,-5.76715 -0.52629,-11.72809 -3.36742,-16.76782 -2.84113,-5.03973 -7.63094,-9.07447 -13.24919,-10.45515 -2.80912,-0.69034 -5.78883,-0.71537 -8.59077,0.004 -2.80195,0.7189 -5.41799,2.18841 -7.43499,4.26191 -2.01701,2.0735 -3.42078,4.75122 -3.90335,7.60338 -0.48258,2.85217 -0.0294,5.86661 1.33783,8.41581 1.68047,3.13323 4.74499,5.49094 8.20432,6.31204 3.45932,0.8211 7.25651,0.0921 10.16579,-1.95175"
       id="path3780"
       inkscape:path-effect="#path-effect3782"
       inkscape:original-d="m 850.59299,154.66661 c -70.58302,-46.82771 -152.76443,0.90926 -226.59929,17.91927 -68.86492,15.86504 -136.49999,41.51738 -197.35558,77.44333 -47.04014,27.77003 -108.85883,52.81817 -126.11315,104.64709 -42.99842,129.15967 -26.66936,336.57999 95.25568,397.12228 99.29723,49.30637 304.54985,7.19645 304.54985,-133.67463 0,-140.87108 -100.83602,-426.2384 -145.10979,-301.46688 -44.27377,124.77153 -115.63587,143.2189 -71.37405,197.415 35.57649,43.56141 170.96379,30.49245 166.9389,-24.51435 -4.02488,-55.0068 -19.33853,-124.96222 -47.51274,-91.42149 -28.17422,33.54073 -93.58469,47.89489 -60.33382,86.44792 12.24899,14.20221 72.15037,2.0322 71.85276,-21.00569 -0.3733,-28.89717 -41.91604,-24.37952 -35.20789,-6.93833 6.70814,17.44118 18.37011,4.36029 18.37011,4.36029"
       inkscape:connector-curvature="0"
       transform="translate(0,52.362207)"
       sodipodi:nodetypes="caaaascasssssc" />
  </g>
</svg>
