<?xml version="1.0" encoding="UTF-8" standalone="no"?>
<!-- Created with Inkscape (http://www.inkscape.org/) -->

<svg
   xmlns:dc="http://purl.org/dc/elements/1.1/"
   xmlns:cc="http://creativecommons.org/ns#"
   xmlns:rdf="http://www.w3.org/1999/02/22-rdf-syntax-ns#"
   xmlns:svg="http://www.w3.org/2000/svg"
   xmlns="http://www.w3.org/2000/svg"
   xmlns:sodipodi="http://sodipodi.sourceforge.net/DTD/sodipodi-0.dtd"
   xmlns:inkscape="http://www.inkscape.org/namespaces/inkscape"
   width="1052.3622"
   height="744.09448"
   id="svg2"
   version="1.1"
   inkscape:version="0.48.4 r9939"
   sodipodi:docname="New document 1">
  <defs
     id="defs4">
    <inkscape:path-effect
       fuse_tolerance="0"
       vertical_pattern="false"
       prop_units="false"
       tang_offset="0"
       normal_offset="0"
       spacing="0"
       scale_y_rel="false"
       prop_scale="1"
       copytype="single_stretched"
       pattern="m 292.02485,592.46385 c 0,-2.76 2.24,-5 5,-5 2.76,0 5,2.24 5,5 0,2.76 -2.24,5 -5,5 -2.76,0 -5,-2.24 -5,-5 z"
       is_visible="true"
       id="path-effect3041"
       effect="skeletal" />
    <inkscape:path-effect
       is_visible="true"
       id="path-effect3039"
       effect="spiro" />
    <inkscape:path-effect
       effect="skeletal"
       id="path-effect3013"
       is_visible="true"
       pattern="m 38.87692,64.671552 c 0,-2.76 2.24,-5 5,-5 2.76,0 5,2.24 5,5 0,2.76 -2.24,5 -5,5 -2.76,0 -5,-2.24 -5,-5 z"
       copytype="single_stretched"
       prop_scale="1"
       scale_y_rel="false"
       spacing="0"
       normal_offset="0"
       tang_offset="0"
       prop_units="false"
       vertical_pattern="false"
       fuse_tolerance="0" />
    <inkscape:path-effect
       effect="spiro"
       id="path-effect3011"
       is_visible="true" />
    <inkscape:path-effect
       effect="spiro"
       id="path-effect3011-1"
       is_visible="true" />
    <inkscape:path-effect
       effect="skeletal"
       id="path-effect3013-9"
       is_visible="true"
       pattern="m -204.3272,-540.01383 c 0,-2.76 2.24,-5 5,-5 2.76,0 5,2.24 5,5 0,2.76 -2.24,5 -5,5 -2.76,0 -5,-2.24 -5,-5 z"
       copytype="single_stretched"
       prop_scale="1"
       scale_y_rel="false"
       spacing="0"
       normal_offset="0"
       tang_offset="0"
       prop_units="false"
       vertical_pattern="false"
       fuse_tolerance="0" />
  </defs>
  <sodipodi:namedview
     id="base"
     pagecolor="#ffffff"
     bordercolor="#666666"
     borderopacity="1.0"
     inkscape:pageopacity="0.0"
     inkscape:pageshadow="2"
     inkscape:zoom="1.1060547"
     inkscape:cx="369.65535"
     inkscape:cy="409.33905"
     inkscape:document-units="px"
     inkscape:current-layer="layer1"
     showgrid="false"
     inkscape:showpageshadow="false"
     inkscape:window-width="1680"
     inkscape:window-height="991"
     inkscape:window-x="0"
     inkscape:window-y="27"
     inkscape:window-maximized="1" />
  <metadata
     id="metadata7">
    <rdf:RDF>
      <cc:Work
         rdf:about="">
        <dc:format>image/svg+xml</dc:format>
        <dc:type
           rdf:resource="http://purl.org/dc/dcmitype/StillImage" />
        <dc:title></dc:title>
      </cc:Work>
    </rdf:RDF>
  </metadata>
  <g
     inkscape:label="Layer 1"
     inkscape:groupmode="layer"
     id="layer1"
     transform="translate(0,-308.2677)">
    <flowRoot
       xml:space="preserve"
       id="flowRoot2985"
       style="font-size:64px;font-style:normal;font-variant:normal;font-weight:normal;font-stretch:normal;line-height:125%;letter-spacing:0px;word-spacing:0px;fill:#000000;fill-opacity:1;stroke:none;font-family:Ubuntu;-inkscape-font-specification:Ubuntu;text-anchor:middle;text-align:center"
       transform="translate(0,308.2677)"
       inkscape:export-filename="/media/22AE5D62AE5D2F91/Users/Horatio III/Desktop/Dropbox/Webery/apetower/logo.png"
       inkscape:export-xdpi="90"
       inkscape:export-ydpi="90"><flowRegion
         id="flowRegion2987"><rect
           id="rect2989"
           width="525.29041"
           height="92.219666"
           x="207.04221"
           y="235.07806"
           style="font-size:64px;font-style:normal;font-variant:normal;font-weight:normal;font-stretch:normal;text-align:center;text-anchor:middle;font-family:Ubuntu;-inkscape-font-specification:Ubuntu;fill:#000000"
           ry="0" /></flowRegion><flowPara
         id="flowPara2991">Tychron Systems</flowPara></flowRoot>    <flowRoot
       xml:space="preserve"
       id="flowRoot3001"
       style="fill:black;stroke:none;stroke-opacity:1;stroke-width:1px;stroke-linejoin:miter;stroke-linecap:butt;fill-opacity:1;font-family:Muli;font-style:normal;font-weight:300;font-size:40px;line-height:125%;letter-spacing:0px;word-spacing:0px;-inkscape-font-specification:Muli Light;font-stretch:normal;font-variant:normal"><flowRegion
         id="flowRegion3003"><rect
           id="rect3005"
           width="537.94806"
           height="180.82289"
           x="207.04221"
           y="275.76321" /></flowRegion><flowPara
         id="flowPara3007"></flowPara></flowRoot>    <path
       style="fill:#000000;fill-rule:evenodd;stroke:none"
       d="m 238.1062,618.83058 c 0.13178,-0.6773 6.78642,-0.009 18.72739,1.51239 11.94097,1.52188 29.17545,3.87538 50.50798,6.28975 21.33252,2.41438 46.7674,4.87271 75.06083,6.61936 28.29343,1.74665 59.44501,2.76986 92.13301,2.54388 0.9686,-0.007 1.93585,-0.0145 2.9017,-0.0232 32.35361,-0.29458 63.13727,-1.78749 91.06752,-3.93851 27.93025,-2.15103 53.00698,-4.94873 74.02555,-7.63475 21.01858,-2.68601 37.98345,-5.24402 49.73618,-6.90539 11.75274,-1.66137 18.30056,-2.40453 18.44066,-1.73412 0.1401,0.67041 -6.14342,2.69255 -17.70873,5.52881 -11.5653,2.83627 -28.42005,6.46516 -49.42858,10.06308 -21.00853,3.59792 -46.17533,7.148 -74.27651,9.82811 -28.10118,2.68011 -59.13627,4.47799 -91.76251,4.79159 -0.97399,0.009 -1.94939,0.0174 -2.92616,0.0242 -32.96359,0.22784 -64.37565,-1.08574 -92.85194,-3.35282 -28.4763,-2.26708 -54.01605,-5.47507 -75.35401,-8.80334 -21.33796,-3.32828 -38.4785,-6.75934 -50.24814,-9.46578 -11.76964,-2.70645 -18.17602,-4.6659 -18.04424,-5.3432 z"
       id="path3009"
       inkscape:path-effect="#path-effect3011;#path-effect3013"
       inkscape:original-d="m 238.1062,618.83058 c 81.30328,9.21063 143.0496,38.0333 239.3777,21.94155 96.32809,-16.09175 233.22312,-25.21218 233.22312,-25.21218"
       inkscape:connector-curvature="0"
       sodipodi:nodetypes="csc"
       inkscape:export-filename="/media/22AE5D62AE5D2F91/Users/Horatio III/Desktop/Dropbox/Webery/apetower/logo.png"
       inkscape:export-xdpi="90"
       inkscape:export-ydpi="90" />
    <path
       style="fill:#000000;fill-rule:evenodd;stroke:none"
       d="m 243.20598,559.36375 c -0.11534,-0.57885 4.46927,-2.09627 13.03489,-4.22378 8.56563,-2.12751 21.1164,-4.85365 36.94279,-7.651 15.82639,-2.79734 34.93137,-5.65649 56.55999,-8.00734 21.62861,-2.35085 45.78156,-4.18601 71.63017,-5.01871 10e-6,0 10e-6,0 2e-5,0 17.47672,-0.56296 35.7261,-0.66792 54.47391,-0.21424 32.41601,0.78443 63.25451,3.18385 91.1547,6.5177 27.90019,3.33385 52.86158,7.58836 73.67305,11.83374 20.81148,4.24537 37.4789,8.46271 48.90012,11.71848 11.42123,3.25578 17.60622,5.52592 17.43902,6.19536 -0.1672,0.66944 -6.66767,-0.32375 -18.31595,-2.40423 -11.64828,-2.08047 -28.45384,-5.22406 -49.2884,-8.55376 -20.83457,-3.3297 -45.70392,-6.82732 -73.41858,-9.63136 -27.71466,-2.80405 -58.27454,-4.9018 -90.38589,-5.67891 -18.5716,-0.44944 -36.64714,-0.43876 -53.96792,-0.0569 0,0 -10e-6,0 -2e-5,0 -25.61885,0.56467 -49.58422,1.94186 -71.09734,3.68679 -21.51311,1.74493 -40.57477,3.85064 -56.43431,5.78779 -15.85954,1.93715 -28.51984,3.69658 -37.25021,4.785 -8.73038,1.08842 -13.5347,1.49426 -13.65004,0.91541 z"
       id="path3009-8"
       inkscape:path-effect="#path-effect3039;#path-effect3041"
       inkscape:original-d="m 243.20598,559.36375 c 79.15944,-5.51129 129.17336,-24.20897 178.29989,-20.03791 94.41628,8.01636 285.50877,31.18812 285.50877,31.18812"
       inkscape:connector-curvature="0"
       sodipodi:nodetypes="csc"
       inkscape:export-filename="/media/22AE5D62AE5D2F91/Users/Horatio III/Desktop/Dropbox/Webery/apetower/logo.png"
       inkscape:export-xdpi="90"
       inkscape:export-ydpi="90" />
  </g>
</svg>
